<svg width="2500" height="1248" viewBox="0 0 2500 1248" fill="none" xmlns="http://www.w3.org/2000/svg">
<g clip-path="url(#clip0_465_10)">
<path fill-rule="evenodd" clip-rule="evenodd" d="M4.85547 2.90234H2490.01V1240.91H4.85547V2.90234Z" fill="#2C6698" stroke="black" stroke-width="2.49764" stroke-miterlimit="2.613"/>
<path fill-rule="evenodd" clip-rule="evenodd" d="M1483.46 870.417L2236.91 1245.06H2491.69V1121.86L1872.27 824.65L1483.46 822.974V870.417ZM1011.41 872.094L257.95 1246.74H3.19049V1123.52L622.606 826.292L1011.41 824.639V872.094ZM1485.96 379.214L2240.25 4.56787H2494.99V127.785L1874.73 425.004L1485.96 426.681V379.214ZM1010.58 379.214L256.285 4.57943H1.52539V127.796L621.773 425.016L1010.58 426.681V379.214Z" fill="white" stroke="white" stroke-width="2.49764" stroke-miterlimit="2.613"/>
<path fill-rule="evenodd" clip-rule="evenodd" d="M5.6875 418.355H2490.01V823.806H5.6875V418.355Z" fill="white" stroke="white" stroke-width="2.49764" stroke-miterlimit="2.613"/>
<path fill-rule="evenodd" clip-rule="evenodd" d="M1012.24 5.41162H1482.64V1241.76H1012.24V5.41162Z" fill="white" stroke="white" stroke-width="2.49764" stroke-miterlimit="2.613"/>
<path fill-rule="evenodd" clip-rule="evenodd" d="M1098.82 1.24902H1396.05V1241.76H1098.82V1.24902ZM3.19141 1241.76L830.744 827.968H1012.24L179.691 1245.07C179.691 1245.07 3.19141 1245.07 3.19141 1241.76ZM1489.28 419.176L2318.51 3.7351H2499.16L1669.95 419.176C1669.95 419.176 1489.28 422.518 1489.28 419.176ZM7.35414 96.992L679.22 420.02H851.557L8.18669 27.0464C8.18669 27.0464 7.35414 105.317 7.35414 96.992ZM2488.35 1159.32L1810.66 824.65L1628.34 823.817L2488.35 1243.41V1159.32Z" fill="#B01842" stroke="#B01842" stroke-width="2.49764" stroke-miterlimit="2.613"/>
<path fill-rule="evenodd" clip-rule="evenodd" d="M1480.97 383.388L1494.29 380.891L1482.64 430.832C1482.64 430.832 1482.64 385.042 1480.97 383.388Z" fill="white" stroke="white" stroke-width="2.49764" stroke-miterlimit="2.613"/>
<path fill-rule="evenodd" clip-rule="evenodd" d="M5.6875 514.086H2490.01V730.56H5.6875V514.086Z" fill="#B01842" stroke="#B01842" stroke-width="2.49764" stroke-miterlimit="2.613"/>
</g>
<defs>
<clipPath id="clip0_465_10">
<rect width="2500" height="1248" fill="white"/>
</clipPath>
</defs>
</svg>
