<svg width="500" height="500" viewBox="0 0 500 500" fill="none" xmlns="http://www.w3.org/2000/svg">
<g clip-path="url(#clip0_159_5)">
<rect width="500" height="500" fill="white"/>
<rect width="500" height="500" fill="#00140E"/>
<path d="M88.179 480H87.2557L89.9261 472.727H90.8352L93.5057 480H92.5824L90.4091 473.878H90.3523L88.179 480ZM88.5199 477.159H92.2415V477.94H88.5199V477.159ZM97.0533 473.509V472.727H102.508V473.509H100.221V480H99.3402V473.509H97.0533ZM104.748 472.727V480H103.867V472.727H104.748ZM112.281 472.727V480H111.428L107.465 474.29H107.394V480H106.513V472.727H107.366L111.343 478.452H111.414V472.727H112.281ZM113.418 472.727H114.426L116.443 476.122H116.529L118.546 472.727H119.554L116.926 477.003V480H116.046V477.003L113.418 472.727ZM123.506 480V472.727H125.963C126.534 472.727 127 472.83 127.362 473.036C127.727 473.24 127.997 473.516 128.172 473.864C128.347 474.212 128.435 474.6 128.435 475.028C128.435 475.457 128.347 475.846 128.172 476.197C127.999 476.547 127.732 476.826 127.369 477.035C127.007 477.241 126.543 477.344 125.977 477.344H124.216V476.562H125.949C126.339 476.562 126.653 476.495 126.89 476.36C127.127 476.225 127.298 476.043 127.405 475.813C127.514 475.581 127.568 475.32 127.568 475.028C127.568 474.737 127.514 474.477 127.405 474.247C127.298 474.018 127.125 473.838 126.886 473.707C126.647 473.575 126.33 473.509 125.935 473.509H124.386V480H123.506ZM129.853 480V472.727H132.311C132.879 472.727 133.345 472.824 133.71 473.018C134.074 473.21 134.344 473.474 134.52 473.81C134.695 474.147 134.782 474.529 134.782 474.957C134.782 475.386 134.695 475.766 134.52 476.097C134.344 476.429 134.076 476.689 133.713 476.879C133.351 477.066 132.888 477.159 132.325 477.159H130.336V476.364H132.297C132.685 476.364 132.997 476.307 133.234 476.193C133.473 476.08 133.646 475.919 133.752 475.71C133.861 475.5 133.916 475.249 133.916 474.957C133.916 474.666 133.861 474.412 133.752 474.194C133.644 473.976 133.47 473.808 133.23 473.69C132.991 473.569 132.675 473.509 132.282 473.509H130.734V480H129.853ZM133.277 476.733L135.066 480H134.044L132.282 476.733H133.277ZM142.386 476.364C142.386 477.131 142.248 477.794 141.971 478.352C141.694 478.911 141.314 479.342 140.831 479.645C140.348 479.948 139.796 480.099 139.176 480.099C138.556 480.099 138.004 479.948 137.521 479.645C137.038 479.342 136.658 478.911 136.381 478.352C136.104 477.794 135.966 477.131 135.966 476.364C135.966 475.597 136.104 474.934 136.381 474.375C136.658 473.816 137.038 473.385 137.521 473.082C138.004 472.779 138.556 472.628 139.176 472.628C139.796 472.628 140.348 472.779 140.831 473.082C141.314 473.385 141.694 473.816 141.971 474.375C142.248 474.934 142.386 475.597 142.386 476.364ZM141.534 476.364C141.534 475.734 141.429 475.202 141.218 474.769C141.01 474.336 140.727 474.008 140.369 473.786C140.014 473.563 139.616 473.452 139.176 473.452C138.736 473.452 138.337 473.563 137.979 473.786C137.624 474.008 137.341 474.336 137.131 474.769C136.922 475.202 136.818 475.734 136.818 476.364C136.818 476.993 136.922 477.525 137.131 477.958C137.341 478.391 137.624 478.719 137.979 478.942C138.337 479.164 138.736 479.276 139.176 479.276C139.616 479.276 140.014 479.164 140.369 478.942C140.727 478.719 141.01 478.391 141.218 477.958C141.429 477.525 141.534 476.993 141.534 476.364ZM146.651 472.727H147.532V477.926C147.532 478.39 147.447 478.784 147.276 479.109C147.106 479.433 146.865 479.679 146.555 479.847C146.245 480.015 145.879 480.099 145.458 480.099C145.06 480.099 144.706 480.027 144.396 479.883C144.086 479.736 143.842 479.528 143.665 479.258C143.487 478.988 143.398 478.667 143.398 478.295H144.265C144.265 478.501 144.316 478.681 144.417 478.835C144.522 478.987 144.664 479.105 144.844 479.19C145.023 479.276 145.228 479.318 145.458 479.318C145.711 479.318 145.927 479.265 146.104 479.158C146.282 479.052 146.417 478.896 146.509 478.69C146.604 478.481 146.651 478.227 146.651 477.926V472.727ZM149.297 480V472.727H153.686V473.509H150.177V475.966H153.459V476.747H150.177V479.219H153.743V480H149.297ZM161.126 475H160.245C160.193 474.747 160.102 474.524 159.971 474.332C159.844 474.141 159.687 473.98 159.503 473.849C159.32 473.717 159.118 473.617 158.895 473.551C158.673 473.485 158.441 473.452 158.199 473.452C157.759 473.452 157.36 473.563 157.003 473.786C156.648 474.008 156.365 474.336 156.154 474.769C155.946 475.202 155.841 475.734 155.841 476.364C155.841 476.993 155.946 477.525 156.154 477.958C156.365 478.391 156.648 478.719 157.003 478.942C157.36 479.164 157.759 479.276 158.199 479.276C158.441 479.276 158.673 479.242 158.895 479.176C159.118 479.11 159.32 479.012 159.503 478.881C159.687 478.749 159.844 478.587 159.971 478.395C160.102 478.201 160.193 477.978 160.245 477.727H161.126C161.059 478.099 160.939 478.432 160.763 478.725C160.588 479.019 160.37 479.268 160.11 479.474C159.849 479.678 159.557 479.833 159.233 479.94C158.911 480.046 158.566 480.099 158.199 480.099C157.579 480.099 157.028 479.948 156.545 479.645C156.062 479.342 155.682 478.911 155.405 478.352C155.128 477.794 154.989 477.131 154.989 476.364C154.989 475.597 155.128 474.934 155.405 474.375C155.682 473.816 156.062 473.385 156.545 473.082C157.028 472.779 157.579 472.628 158.199 472.628C158.566 472.628 158.911 472.681 159.233 472.788C159.557 472.894 159.849 473.05 160.11 473.256C160.37 473.46 160.588 473.709 160.763 474.002C160.939 474.293 161.059 474.626 161.126 475ZM162.151 473.509V472.727H167.605V473.509H165.319V480H164.438V473.509H162.151ZM175.754 474.545C175.712 474.186 175.539 473.906 175.236 473.707C174.933 473.509 174.561 473.409 174.121 473.409C173.799 473.409 173.517 473.461 173.276 473.565C173.037 473.67 172.85 473.813 172.715 473.995C172.582 474.177 172.516 474.384 172.516 474.616C172.516 474.811 172.562 474.978 172.654 475.117C172.749 475.254 172.87 475.369 173.017 475.462C173.163 475.552 173.317 475.626 173.478 475.685C173.639 475.742 173.787 475.788 173.922 475.824L174.661 476.023C174.85 476.072 175.061 476.141 175.293 476.229C175.527 476.316 175.751 476.436 175.964 476.587C176.179 476.737 176.357 476.928 176.497 477.163C176.636 477.397 176.706 477.685 176.706 478.026C176.706 478.419 176.603 478.774 176.397 479.091C176.194 479.408 175.895 479.66 175.502 479.847C175.112 480.034 174.637 480.128 174.078 480.128C173.557 480.128 173.106 480.044 172.725 479.876C172.347 479.708 172.048 479.473 171.83 479.173C171.615 478.872 171.493 478.523 171.465 478.125H172.374C172.397 478.4 172.49 478.627 172.651 478.807C172.814 478.984 173.02 479.117 173.269 479.205C173.52 479.29 173.789 479.332 174.078 479.332C174.414 479.332 174.716 479.278 174.984 479.169C175.251 479.058 175.463 478.904 175.619 478.707C175.776 478.509 175.854 478.277 175.854 478.011C175.854 477.77 175.786 477.573 175.651 477.422C175.517 477.27 175.339 477.147 175.119 477.053C174.899 476.958 174.661 476.875 174.405 476.804L173.51 476.548C172.942 476.385 172.492 476.152 172.161 475.849C171.829 475.546 171.664 475.149 171.664 474.659C171.664 474.252 171.774 473.897 171.994 473.594C172.216 473.288 172.515 473.052 172.889 472.884C173.265 472.713 173.685 472.628 174.149 472.628C174.618 472.628 175.035 472.712 175.399 472.88C175.764 473.046 176.053 473.273 176.266 473.562C176.481 473.851 176.595 474.179 176.607 474.545H175.754ZM178.154 480V472.727H182.543V473.509H179.035V475.966H182.316V476.747H179.035V479.219H182.6V480H178.154ZM184.131 480V472.727H186.588C187.156 472.727 187.623 472.824 187.987 473.018C188.352 473.21 188.622 473.474 188.797 473.81C188.972 474.147 189.06 474.529 189.06 474.957C189.06 475.386 188.972 475.766 188.797 476.097C188.622 476.429 188.353 476.689 187.991 476.879C187.629 477.066 187.166 477.159 186.602 477.159H184.614V476.364H186.574C186.962 476.364 187.275 476.307 187.511 476.193C187.75 476.08 187.923 475.919 188.03 475.71C188.139 475.5 188.193 475.249 188.193 474.957C188.193 474.666 188.139 474.412 188.03 474.194C187.921 473.976 187.747 473.808 187.508 473.69C187.269 473.569 186.953 473.509 186.56 473.509H185.011V480H184.131ZM187.554 476.733L189.344 480H188.321L186.56 476.733H187.554ZM190.659 472.727L192.819 478.849H192.904L195.063 472.727H195.986L193.316 480H192.407L189.736 472.727H190.659ZM197.119 480V472.727H201.508V473.509H198V475.966H201.281V476.747H198V479.219H201.565V480H197.119ZM205.34 480H203.096V472.727H205.439C206.145 472.727 206.748 472.873 207.25 473.164C207.752 473.453 208.137 473.868 208.404 474.411C208.672 474.95 208.806 475.597 208.806 476.349C208.806 477.107 208.671 477.759 208.401 478.306C208.131 478.851 207.738 479.27 207.222 479.563C206.706 479.854 206.078 480 205.34 480ZM203.976 479.219H205.283C205.884 479.219 206.383 479.103 206.778 478.871C207.173 478.639 207.468 478.308 207.662 477.88C207.856 477.451 207.953 476.941 207.953 476.349C207.953 475.762 207.858 475.257 207.666 474.833C207.474 474.407 207.188 474.08 206.806 473.853C206.425 473.623 205.951 473.509 205.382 473.509H203.976V479.219ZM212.698 473.509V472.727H218.152V473.509H215.865V480H214.985V473.509H212.698ZM225.345 476.364C225.345 477.131 225.207 477.794 224.93 478.352C224.653 478.911 224.273 479.342 223.79 479.645C223.307 479.948 222.755 480.099 222.135 480.099C221.515 480.099 220.963 479.948 220.48 479.645C219.997 479.342 219.617 478.911 219.34 478.352C219.063 477.794 218.925 477.131 218.925 476.364C218.925 475.597 219.063 474.934 219.34 474.375C219.617 473.816 219.997 473.385 220.48 473.082C220.963 472.779 221.515 472.628 222.135 472.628C222.755 472.628 223.307 472.779 223.79 473.082C224.273 473.385 224.653 473.816 224.93 474.375C225.207 474.934 225.345 475.597 225.345 476.364ZM224.493 476.364C224.493 475.734 224.388 475.202 224.177 474.769C223.969 474.336 223.686 474.008 223.328 473.786C222.973 473.563 222.575 473.452 222.135 473.452C221.695 473.452 221.296 473.563 220.938 473.786C220.583 474.008 220.3 474.336 220.089 474.769C219.881 475.202 219.777 475.734 219.777 476.364C219.777 476.993 219.881 477.525 220.089 477.958C220.3 478.391 220.583 478.719 220.938 478.942C221.296 479.164 221.695 479.276 222.135 479.276C222.575 479.276 222.973 479.164 223.328 478.942C223.686 478.719 223.969 478.391 224.177 477.958C224.388 477.525 224.493 476.993 224.493 476.364ZM229.638 480V472.727H230.519V475.966H234.397V472.727H235.278V480H234.397V476.747H230.519V480H229.638ZM237.041 480V472.727H241.43V473.509H237.922V475.966H241.203V476.747H237.922V479.219H241.487V480H237.041ZM243.017 480V472.727H243.898V479.219H247.279V480H243.017ZM248.642 480V472.727H251.1C251.67 472.727 252.137 472.83 252.499 473.036C252.864 473.24 253.133 473.516 253.309 473.864C253.484 474.212 253.571 474.6 253.571 475.028C253.571 475.457 253.484 475.846 253.309 476.197C253.136 476.547 252.868 476.826 252.506 477.035C252.144 477.241 251.68 477.344 251.114 477.344H249.353V476.562H251.086C251.476 476.562 251.79 476.495 252.027 476.36C252.263 476.225 252.435 476.043 252.542 475.813C252.65 475.581 252.705 475.32 252.705 475.028C252.705 474.737 252.65 474.477 252.542 474.247C252.435 474.018 252.262 473.838 252.023 473.707C251.784 473.575 251.467 473.509 251.071 473.509H249.523V480H248.642ZM257.803 480V472.727H262.192V473.509H258.683V475.966H261.964V476.747H258.683V479.219H262.249V480H257.803ZM264.077 472.727L266.237 478.849H266.322L268.481 472.727H269.404L266.734 480H265.825L263.154 472.727H264.077ZM270.537 480V472.727H274.926V473.509H271.418V475.966H274.699V476.747H271.418V479.219H274.983V480H270.537ZM276.513 480V472.727H278.971C279.539 472.727 280.005 472.824 280.37 473.018C280.735 473.21 281.004 473.474 281.18 473.81C281.355 474.147 281.442 474.529 281.442 474.957C281.442 475.386 281.355 475.766 281.18 476.097C281.004 476.429 280.736 476.689 280.374 476.879C280.011 477.066 279.549 477.159 278.985 477.159H276.996V476.364H278.957C279.345 476.364 279.657 476.307 279.894 476.193C280.133 476.08 280.306 475.919 280.413 475.71C280.522 475.5 280.576 475.249 280.576 474.957C280.576 474.666 280.522 474.412 280.413 474.194C280.304 473.976 280.13 473.808 279.891 473.69C279.652 473.569 279.335 473.509 278.942 473.509H277.394V480H276.513ZM279.937 476.733L281.727 480H280.704L278.942 476.733H279.937ZM282.041 472.727H283.049L285.066 476.122H285.152L287.169 472.727H288.177L285.549 477.003V480H284.669V477.003L282.041 472.727ZM295.111 476.364C295.111 477.131 294.972 477.794 294.695 478.352C294.418 478.911 294.038 479.342 293.555 479.645C293.072 479.948 292.521 480.099 291.901 480.099C291.28 480.099 290.729 479.948 290.246 479.645C289.763 479.342 289.383 478.911 289.106 478.352C288.829 477.794 288.69 477.131 288.69 476.364C288.69 475.597 288.829 474.934 289.106 474.375C289.383 473.816 289.763 473.385 290.246 473.082C290.729 472.779 291.28 472.628 291.901 472.628C292.521 472.628 293.072 472.779 293.555 473.082C294.038 473.385 294.418 473.816 294.695 474.375C294.972 474.934 295.111 475.597 295.111 476.364ZM294.259 476.364C294.259 475.734 294.153 475.202 293.942 474.769C293.734 474.336 293.451 474.008 293.094 473.786C292.739 473.563 292.341 473.452 291.901 473.452C291.46 473.452 291.061 473.563 290.704 473.786C290.349 474.008 290.066 474.336 289.855 474.769C289.647 475.202 289.543 475.734 289.543 476.364C289.543 476.993 289.647 477.525 289.855 477.958C290.066 478.391 290.349 478.719 290.704 478.942C291.061 479.164 291.46 479.276 291.901 479.276C292.341 479.276 292.739 479.164 293.094 478.942C293.451 478.719 293.734 478.391 293.942 477.958C294.153 477.525 294.259 476.993 294.259 476.364ZM302.359 472.727V480H301.506L297.543 474.29H297.472V480H296.592V472.727H297.444L301.421 478.452H301.492V472.727H302.359ZM304.121 480V472.727H308.51V473.509H305.002V475.966H308.283V476.747H305.002V479.219H308.567V480H304.121ZM317.683 472.727H318.563V477.543C318.563 478.04 318.446 478.484 318.212 478.874C317.98 479.263 317.652 479.569 317.228 479.794C316.804 480.017 316.307 480.128 315.737 480.128C315.166 480.128 314.669 480.017 314.245 479.794C313.821 479.569 313.492 479.263 313.258 478.874C313.026 478.484 312.91 478.04 312.91 477.543V472.727H313.791V477.472C313.791 477.827 313.869 478.143 314.025 478.42C314.181 478.694 314.404 478.911 314.693 479.07C314.984 479.226 315.332 479.304 315.737 479.304C316.142 479.304 316.49 479.226 316.781 479.07C317.072 478.911 317.294 478.694 317.448 478.42C317.605 478.143 317.683 477.827 317.683 477.472V472.727ZM326.089 472.727V480H325.237L321.274 474.29H321.203V480H320.322V472.727H321.174L325.152 478.452H325.223V472.727H326.089ZM330.096 480H327.851V472.727H330.195C330.901 472.727 331.504 472.873 332.006 473.164C332.508 473.453 332.893 473.868 333.16 474.411C333.428 474.95 333.562 475.597 333.562 476.349C333.562 477.107 333.427 477.759 333.157 478.306C332.887 478.851 332.494 479.27 331.978 479.563C331.462 479.854 330.834 480 330.096 480ZM328.732 479.219H330.039C330.64 479.219 331.139 479.103 331.534 478.871C331.929 478.639 332.224 478.308 332.418 477.88C332.612 477.451 332.709 476.941 332.709 476.349C332.709 475.762 332.613 475.257 332.422 474.833C332.23 474.407 331.943 474.08 331.562 473.853C331.181 473.623 330.706 473.509 330.138 473.509H328.732V479.219ZM335.039 480V472.727H339.428V473.509H335.92V475.966H339.201V476.747H335.92V479.219H339.485V480H335.039ZM341.015 480V472.727H343.473C344.041 472.727 344.507 472.824 344.872 473.018C345.237 473.21 345.506 473.474 345.682 473.81C345.857 474.147 345.944 474.529 345.944 474.957C345.944 475.386 345.857 475.766 345.682 476.097C345.506 476.429 345.238 476.689 344.876 476.879C344.513 477.066 344.05 477.159 343.487 477.159H341.498V476.364H343.459C343.847 476.364 344.159 476.307 344.396 476.193C344.635 476.08 344.808 475.919 344.915 475.71C345.023 475.5 345.078 475.249 345.078 474.957C345.078 474.666 345.023 474.412 344.915 474.194C344.806 473.976 344.632 473.808 344.393 473.69C344.153 473.569 343.837 473.509 343.444 473.509H341.896V480H341.015ZM344.439 476.733L346.229 480H345.206L343.444 476.733H344.439ZM351.389 474.545C351.347 474.186 351.174 473.906 350.871 473.707C350.568 473.509 350.196 473.409 349.756 473.409C349.434 473.409 349.152 473.461 348.911 473.565C348.671 473.67 348.484 473.813 348.349 473.995C348.217 474.177 348.151 474.384 348.151 474.616C348.151 474.811 348.197 474.978 348.289 475.117C348.384 475.254 348.504 475.369 348.651 475.462C348.798 475.552 348.952 475.626 349.113 475.685C349.274 475.742 349.422 475.788 349.557 475.824L350.295 476.023C350.485 476.072 350.696 476.141 350.928 476.229C351.162 476.316 351.386 476.436 351.599 476.587C351.814 476.737 351.992 476.928 352.131 477.163C352.271 477.397 352.341 477.685 352.341 478.026C352.341 478.419 352.238 478.774 352.032 479.091C351.828 479.408 351.53 479.66 351.137 479.847C350.746 480.034 350.272 480.128 349.713 480.128C349.192 480.128 348.741 480.044 348.36 479.876C347.981 479.708 347.683 479.473 347.465 479.173C347.25 478.872 347.128 478.523 347.099 478.125H348.009C348.032 478.4 348.125 478.627 348.286 478.807C348.449 478.984 348.655 479.117 348.903 479.205C349.154 479.29 349.424 479.332 349.713 479.332C350.049 479.332 350.351 479.278 350.619 479.169C350.886 479.058 351.098 478.904 351.254 478.707C351.411 478.509 351.489 478.277 351.489 478.011C351.489 477.77 351.421 477.573 351.286 477.422C351.151 477.27 350.974 477.147 350.754 477.053C350.533 476.958 350.295 476.875 350.04 476.804L349.145 476.548C348.577 476.385 348.127 476.152 347.795 475.849C347.464 475.546 347.298 475.149 347.298 474.659C347.298 474.252 347.408 473.897 347.629 473.594C347.851 473.288 348.149 473.052 348.523 472.884C348.9 472.713 349.32 472.628 349.784 472.628C350.253 472.628 350.67 472.712 351.034 472.88C351.399 473.046 351.688 473.273 351.901 473.562C352.116 473.851 352.23 474.179 352.241 474.545H351.389ZM353.391 473.509V472.727H358.846V473.509H356.559V480H355.678V473.509H353.391ZM359.654 480H358.73L361.401 472.727H362.31L364.98 480H364.057L361.884 473.878H361.827L359.654 480ZM359.994 477.159H363.716V477.94H359.994V477.159ZM371.88 472.727V480H371.028L367.065 474.29H366.994V480H366.113V472.727H366.965L370.943 478.452H371.014V472.727H371.88ZM375.887 480H373.642V472.727H375.986C376.692 472.727 377.295 472.873 377.797 473.164C378.299 473.453 378.684 473.868 378.951 474.411C379.219 474.95 379.353 475.597 379.353 476.349C379.353 477.107 379.218 477.759 378.948 478.306C378.678 478.851 378.285 479.27 377.769 479.563C377.253 479.854 376.625 480 375.887 480ZM374.523 479.219H375.83C376.431 479.219 376.93 479.103 377.325 478.871C377.72 478.639 378.015 478.308 378.209 477.88C378.403 477.451 378.5 476.941 378.5 476.349C378.5 475.762 378.404 475.257 378.213 474.833C378.021 474.407 377.734 474.08 377.353 473.853C376.972 473.623 376.498 473.509 375.929 473.509H374.523V479.219ZM384.523 472.727V480H383.642V472.727H384.523ZM390.266 474.545C390.224 474.186 390.051 473.906 389.748 473.707C389.445 473.509 389.073 473.409 388.633 473.409C388.311 473.409 388.029 473.461 387.787 473.565C387.548 473.67 387.361 473.813 387.226 473.995C387.094 474.177 387.028 474.384 387.028 474.616C387.028 474.811 387.074 474.978 387.166 475.117C387.261 475.254 387.381 475.369 387.528 475.462C387.675 475.552 387.829 475.626 387.99 475.685C388.151 475.742 388.299 475.788 388.434 475.824L389.172 476.023C389.362 476.072 389.573 476.141 389.805 476.229C390.039 476.316 390.263 476.436 390.476 476.587C390.691 476.737 390.869 476.928 391.008 477.163C391.148 477.397 391.218 477.685 391.218 478.026C391.218 478.419 391.115 478.774 390.909 479.091C390.705 479.408 390.407 479.66 390.014 479.847C389.623 480.034 389.149 480.128 388.59 480.128C388.069 480.128 387.618 480.044 387.237 479.876C386.858 479.708 386.56 479.473 386.342 479.173C386.127 478.872 386.005 478.523 385.976 478.125H386.885C386.909 478.4 387.001 478.627 387.162 478.807C387.326 478.984 387.532 479.117 387.78 479.205C388.031 479.29 388.301 479.332 388.59 479.332C388.926 479.332 389.228 479.278 389.496 479.169C389.763 479.058 389.975 478.904 390.131 478.707C390.287 478.509 390.366 478.277 390.366 478.011C390.366 477.77 390.298 477.573 390.163 477.422C390.028 477.27 389.851 477.147 389.631 477.053C389.41 476.958 389.172 476.875 388.917 476.804L388.022 476.548C387.454 476.385 387.004 476.152 386.672 475.849C386.341 475.546 386.175 475.149 386.175 474.659C386.175 474.252 386.285 473.897 386.506 473.594C386.728 473.288 387.026 473.052 387.4 472.884C387.777 472.713 388.197 472.628 388.661 472.628C389.13 472.628 389.546 472.712 389.911 472.88C390.276 473.046 390.564 473.273 390.778 473.562C390.993 473.851 391.107 474.179 391.118 474.545H390.266ZM392.666 480V472.727H393.547V479.219H396.927V480H392.666ZM399.048 480H398.125L400.795 472.727H401.704L404.375 480H403.452L401.278 473.878H401.221L399.048 480ZM399.389 477.159H403.111V477.94H399.389V477.159ZM405.508 472.727H406.559L409.03 478.764H409.116L411.587 472.727H412.638V480H411.814V474.474H411.743L409.471 480H408.675L406.403 474.474H406.331V480H405.508V472.727Z" fill="white" fill-opacity="0.5"/>
<rect width="500" height="433" fill="#73E7C4"/>
<path d="M-13.3742 172.798L-2.26764 85.5704L18.6834 84.7766L14.2453 119.786L48.4018 118.492L52.8399 83.4826L73.7486 82.6905L62.6421 169.918L41.7333 170.71L46.1699 135.658L12.0134 136.952L7.57682 172.004L-13.3742 172.798ZM94.5342 168.71L72.0171 169.563L112.37 81.2272L140.263 80.1705L158.403 166.29L135.886 167.143L123.906 102.661L123.229 102.687L94.5342 168.71ZM95.9506 134.493L143.016 132.71L140.91 148.727L93.8447 150.51L95.9506 134.493ZM200.242 164.705L167.736 165.936L178.842 78.7089L210.375 77.5143C219.178 77.1807 226.583 78.6946 232.588 82.0557C238.62 85.3876 242.975 90.3372 245.654 96.9045C248.36 103.442 249.125 111.326 247.949 120.554C246.817 129.469 244.156 137.171 239.965 143.66C235.803 150.147 230.343 155.2 223.585 158.819C216.827 162.409 209.045 164.371 200.242 164.705ZM190.931 147.171L200.877 146.794C205.73 146.61 209.986 145.573 213.645 143.682C217.33 141.762 220.326 138.809 222.634 134.822C224.94 130.807 226.494 125.591 227.297 119.174C228.082 113.041 227.857 108.232 226.623 104.746C225.416 101.232 223.232 98.7712 220.07 97.3651C216.936 95.9297 212.886 95.3061 207.919 95.4942L197.507 95.8887L190.931 147.171ZM286.857 74.6167L275.75 161.844L254.799 162.638L265.906 75.4104L286.857 74.6167ZM294.94 91.3496L297.173 74.2258L370.439 71.4501L368.205 88.5739L341.921 89.5697L333.048 159.673L312.393 160.456L321.266 90.3522L294.94 91.3496ZM369.564 158.29L380.671 71.0625L401.622 70.2687L397.184 105.278L431.34 103.984L435.778 68.9747L456.687 68.1825L445.58 155.41L424.672 156.202L429.108 121.15L394.952 122.444L390.515 157.496L369.564 158.29ZM77.5059 224.377C76.2796 233.777 73.4745 241.781 69.0907 248.39C64.734 254.969 59.3168 260.035 52.8392 263.587C46.3897 267.137 39.3839 269.055 31.8218 269.342C23.8364 269.644 16.8559 268.129 10.8803 264.795C4.90474 261.461 0.461937 256.444 -2.44808 249.744C-5.32989 243.043 -6.15048 234.809 -4.90986 225.041C-3.73999 215.644 -0.977788 207.627 3.37676 200.991C7.75952 194.354 13.2033 189.245 19.7081 185.665C26.2401 182.054 33.3154 180.105 40.9339 179.816C48.8629 179.516 55.8016 181.048 61.75 184.411C67.7267 187.773 72.1564 192.819 75.0393 199.548C77.9222 206.277 78.7444 214.553 77.5059 224.377ZM56.4619 222.716C57.1303 217.237 56.9565 212.652 55.9407 208.961C54.9531 205.268 53.1819 202.523 50.6272 200.727C48.0714 198.902 44.8043 198.065 40.8257 198.216C36.4238 198.383 32.4864 199.62 29.0134 201.927C25.5675 204.205 22.7375 207.449 20.5234 211.659C18.3082 215.84 16.8451 220.855 16.1342 226.703C15.3833 232.241 15.5288 236.827 16.5707 240.461C17.6408 244.094 19.4809 246.794 22.091 248.56C24.7 250.298 27.9656 251.093 31.8877 250.944C36.2613 250.778 40.1575 249.571 43.5762 247.322C46.9949 245.073 49.7983 241.873 51.9864 237.721C54.2027 233.568 55.6945 228.566 56.4619 222.716ZM84.3449 266.165L95.4515 178.938L154.622 176.696L152.389 193.82L114.169 195.268L111.964 213.154L146.417 211.848L144.185 229.014L109.733 230.32L105.296 265.372L84.3449 266.165ZM185.709 192.558L187.943 175.434L261.208 172.658L258.975 189.782L232.691 190.778L223.817 260.881L203.163 261.664L212.036 191.56L185.709 192.558ZM260.334 259.498L271.44 172.27L292.391 171.477L287.953 206.486L322.11 205.192L326.548 170.183L347.456 169.39L336.35 256.618L315.441 257.41L319.878 222.358L285.721 223.652L281.285 258.704L260.334 259.498ZM349.492 256.12L360.598 168.892L421.039 166.603L418.806 183.726L379.316 185.223L377.111 203.108L413.511 201.729L411.279 218.895L374.879 220.274L372.676 238.202L412.166 236.706L409.932 253.83L349.492 256.12ZM26.4762 365.427L-6.02964 366.659L5.07694 279.431L36.6093 278.237C45.413 277.903 52.8172 279.417 58.8221 282.778C64.8542 286.11 69.2096 291.06 71.8886 297.627C74.5947 304.165 75.3596 312.048 74.1833 321.276C73.0517 330.192 70.3906 337.894 66.2 344.382C62.0376 350.87 56.5776 355.923 49.8199 359.541C43.0611 363.132 35.2799 365.094 26.4762 365.427ZM17.1652 347.893L27.1116 347.516C31.9649 347.332 36.2207 346.295 39.8791 344.405C43.5646 342.485 46.561 339.531 48.8683 335.544C51.1746 331.529 52.729 326.313 53.5314 319.897C54.3163 313.764 54.0917 308.954 52.8576 305.469C51.6507 301.954 49.4664 299.494 46.3048 298.088C43.1704 296.652 39.1201 296.028 34.1539 296.217L23.7419 296.611L17.1652 347.893ZM94.6623 362.844L72.1452 363.697L112.499 275.362L140.391 274.305L158.531 360.424L136.014 361.277L124.034 296.796L123.357 296.821L94.6623 362.844ZM96.0787 328.627L143.144 326.844L141.039 342.861L93.9728 344.644L96.0787 328.627ZM165.807 273.342L189.213 272.455L202.862 308.263L203.751 308.229L226.629 271.038L250.035 270.151L210.955 329.446L207.226 358.579L186.402 359.368L190.173 330.233L165.807 273.342Z" fill="white"/>
</g>
<defs>
<clipPath id="clip0_159_5">
<rect width="500" height="500" fill="white"/>
</clipPath>
</defs>
</svg>
