<svg width="353" height="189" viewBox="0 0 353 189" fill="none" xmlns="http://www.w3.org/2000/svg">
<g clip-path="url(#clip0_117_58)">
<path d="M352.682 -9L-10.5 189V-9H352.682Z" fill="#73E7C4"/>
<path d="M-1.92073 93.9847L-7.17505 57.4997L1.20163 54.8391L3.31841 69.4805L16.975 65.1428L14.8582 50.5015L23.2179 47.8462L28.4723 84.3312L20.1125 86.9864L17.9903 72.3281L4.3338 76.6658L6.45595 91.324L-1.92073 93.9847ZM41.2234 80.2811L32.2206 83.1406L38.6598 42.9415L49.8118 39.3994L66.7596 72.1702L57.7568 75.0297L45.7147 50.3137L45.4439 50.3997L41.2234 80.2811ZM37.9742 66.2975L56.7921 60.3205L57.7301 67.0274L38.9122 73.0044L37.9742 66.2975ZM83.4876 66.8571L70.491 70.9851L65.2367 34.5001L77.844 30.4957C81.3639 29.3777 84.5247 29.1625 87.3264 29.8499C90.1358 30.5225 92.4484 32.0359 94.2643 34.3903C96.0879 36.7297 97.2774 39.8295 97.8327 43.6895C98.3712 47.4183 98.1562 50.8276 97.1877 53.9173C96.2304 57.0034 94.5886 59.6548 92.2623 61.8717C89.9323 64.0773 87.0074 65.7391 83.4876 66.8571ZM77.7671 60.8122L81.7439 59.5491C83.6844 58.9328 85.2881 58.0384 86.5551 56.8659C87.8298 55.6786 88.7107 54.1506 89.1977 52.282C89.6811 50.4021 89.7266 48.121 89.3342 45.4387C88.9664 42.8729 88.3385 40.9547 87.4506 39.6843C86.5704 38.3989 85.413 37.6487 83.9786 37.4337C82.5518 37.2038 80.8456 37.4042 78.86 38.0348L74.697 39.3571L77.7671 60.8122ZM108.423 20.7831L113.677 57.2681L105.301 59.9287L100.046 23.4438L108.423 20.7831ZM113.558 26.6413L112.548 19.473L141.841 10.1689L142.851 17.3372L132.342 20.6751L136.586 49.9917L128.328 52.6147L124.084 23.2981L113.558 26.6413ZM151.186 45.3544L145.932 8.86944L154.309 6.20881L156.425 20.8502L170.082 16.5126L167.965 1.87119L176.325 -0.784058L181.579 35.7009L173.22 38.3561L171.097 23.6979L157.441 28.0355L159.563 42.6938L151.186 45.3544Z" fill="white"/>
<path d="M26.8455 128.107C27.8326 132.541 27.8803 136.604 26.9885 140.298C26.1042 143.974 24.4944 147.142 22.1592 149.802C19.8364 152.457 16.996 154.468 13.6377 155.836C10.0915 157.28 6.7 157.74 3.46326 157.218C0.226526 156.695 -2.5956 155.163 -5.00311 152.623C-7.39809 150.078 -9.11603 146.504 -10.1569 141.903C-11.169 137.48 -11.238 133.417 -10.3639 129.716C-9.47733 126.01 -7.86267 122.818 -5.51999 120.14C-3.16989 117.445 -0.303188 115.409 3.08011 114.031C6.60125 112.597 9.97648 112.151 13.2058 112.691C16.4477 113.226 19.2686 114.773 21.6687 117.331C24.0688 119.889 25.7944 123.481 26.8455 128.107ZM17.0975 130.806C16.5013 128.229 15.6722 126.193 14.6102 124.697C13.5608 123.196 12.3138 122.25 10.8693 121.859C9.41957 121.456 7.81133 121.615 6.04449 122.334C4.0897 123.13 2.51929 124.332 1.33328 125.939C0.154706 127.53 -0.588417 129.454 -0.896085 131.712C-1.20886 133.957 -1.04648 136.455 -0.408944 139.205C0.159932 141.822 0.976503 143.863 2.04076 145.329C3.11756 146.789 4.38821 147.703 5.85272 148.071C7.31213 148.427 8.91272 148.25 10.6545 147.54C12.5968 146.75 14.1535 145.568 15.3247 143.996C16.4958 142.423 17.2341 140.523 17.5394 138.295C17.8573 136.062 17.71 133.565 17.0975 130.806ZM36.7682 145.804L27.4851 104.708L53.7621 94.0083L55.5605 102.085L38.5876 108.996L40.5238 117.41L55.8239 111.181L57.63 119.276L42.33 125.506L46.0723 142.016L36.7682 145.804ZM70.3577 96.0598L68.5592 87.9833L101.095 74.7356L102.894 82.812L91.2215 87.5647L98.7062 120.585L89.5337 124.32L82.049 91.2995L70.3577 96.0598ZM114.922 113.982L105.639 72.8854L114.943 69.097L118.678 85.5883L133.847 79.4121L130.112 62.9209L139.397 59.1402L148.68 100.237L139.395 104.017L135.653 87.5074L120.484 93.6836L124.227 110.194L114.922 113.982ZM154.516 97.8604L145.233 56.7638L172.074 45.835L173.873 53.9115L156.336 61.0519L158.272 69.4667L174.437 62.885L176.243 70.9802L160.078 77.562L162.022 85.9956L179.559 78.8551L181.357 86.9316L154.516 97.8604ZM212.991 74.0512L198.556 79.9289L189.273 38.8323L203.276 33.1306C207.185 31.5388 210.767 31.0079 214.022 31.538C217.284 32.0506 220.055 33.5661 222.337 36.0845C224.626 38.5854 226.262 42.0098 227.243 46.3578C228.194 50.5578 228.257 54.4617 227.432 58.0697C226.62 61.6725 224.989 64.8419 222.539 67.578C220.083 70.3016 216.901 72.4593 212.991 74.0512ZM205.927 67.6805L210.344 65.882C212.5 65.0044 214.246 63.8404 215.584 62.39C216.929 60.922 217.795 59.1014 218.181 56.9283C218.562 54.7426 218.407 52.1394 217.718 49.1187C217.067 46.2284 216.178 44.0995 215.052 42.7322C213.933 41.3472 212.546 40.597 210.892 40.4815C209.246 40.3485 207.32 40.731 205.115 41.6289L200.491 43.5116L205.927 67.6805ZM243.272 61.7218L233.272 65.7933L236.977 19.4084L249.364 14.3649L271.635 50.1731L261.636 54.2446L245.682 27.1709L245.381 27.2933L243.272 61.7218ZM238.306 46.0823L259.208 37.5719L260.882 45.1291L239.981 53.6395L238.306 46.0823ZM260.651 9.76913L271.045 5.53688L283.055 19.4257L283.45 19.265L287.661 -1.22858L298.055 -5.46082L290.168 27.639L293.26 41.368L284.012 45.1334L280.939 31.3967L260.651 9.76913Z" fill="white"/>
</g>
<defs>
<clipPath id="clip0_117_58">
<rect width="353" height="189" fill="white"/>
</clipPath>
</defs>
</svg>
