<svg width="306" height="1024" viewBox="0 0 306 1024" fill="none" xmlns="http://www.w3.org/2000/svg">
<g clip-path="url(#clip0_115_30)">
<rect width="306" height="1024" fill="white"/>
<rect width="307" height="1024" fill="#73E7C4"/>
<path d="M137 1052.08L-8.45455 1027.93L-8.45455 992.778L49.9261 1002.44L49.9261 945.122L-8.45455 935.463L-8.45456 900.378L137 924.526L137 959.611L78.5483 949.952L78.5483 1007.27L137 1016.93L137 1052.08ZM137 871.01L137 908.794L-8.45456 835.57L-8.45456 788.766L137 763.837L137 801.621L28.1932 817.601L28.1932 818.737L137 871.01ZM79.7557 866.464L79.7557 787.487L106.46 792.033L106.46 871.01L79.7557 866.464ZM137 693.631L137 748.176L-8.45456 724.028L-8.45457 671.116C-8.45457 656.344 -5.44794 644.033 0.565319 634.185C6.53123 624.289 15.1013 617.305 26.2755 613.233C37.4024 609.114 50.66 608.332 66.0483 610.889C80.9157 613.351 93.6524 618.299 104.259 625.733C114.865 633.119 122.985 642.589 128.619 654.142C134.206 665.695 137 678.858 137 693.631ZM107.028 708.119L107.028 691.429C107.028 683.285 105.561 676.088 102.625 669.838C99.642 663.541 94.8835 658.332 88.3494 654.213C81.768 650.094 73.1269 647.158 62.4261 645.406C52.1988 643.702 44.1259 643.773 38.2074 645.619C32.2415 647.419 27.9801 650.922 25.4233 656.131C22.8191 661.292 21.517 668.039 21.517 676.372L21.517 693.844L107.028 708.119ZM-8.45457 542.778L137 566.926L137 602.082L-8.45457 577.935L-8.45457 542.778ZM20.0966 530.296L-8.45457 525.467L-8.45458 402.526L20.0966 407.356L20.0966 451.461L137 470.779L137 505.438L20.0966 486.12L20.0966 530.296ZM137 409.504L-8.45458 385.357L-8.45458 350.2L49.9261 359.859L49.9261 302.544L-8.45458 292.885L-8.45458 257.8L137 281.947L137 317.033L78.5483 307.374L78.5483 364.689L137 374.348L137 409.504Z" fill="white"/>
<path d="M239.068 965.623C253.957 968.142 266.529 973.09 276.785 980.467C286.996 987.799 294.732 996.727 299.995 1007.25C305.258 1017.73 307.889 1029 307.889 1041.06C307.889 1053.79 305.056 1064.81 299.388 1074.12C293.72 1083.43 285.466 1090.2 274.626 1094.43C263.785 1098.61 250.628 1099.42 235.155 1096.86C220.266 1094.43 207.672 1089.55 197.371 1082.21C187.07 1074.84 179.266 1065.86 173.958 1055.29C168.605 1044.68 165.929 1033.3 165.929 1021.15C165.929 1008.51 168.785 997.559 174.498 988.293C180.211 978.982 188.51 972.235 199.395 968.052C210.28 963.869 223.505 963.059 239.068 965.623ZM235.155 999.021C226.474 997.627 219.164 997.627 213.227 999.021C207.289 1000.37 202.814 1003.02 199.8 1006.98C196.741 1010.94 195.212 1016.09 195.212 1022.43C195.212 1029.45 196.944 1035.79 200.407 1041.46C203.826 1047.08 208.819 1051.78 215.386 1055.56C221.908 1059.34 229.802 1061.97 239.068 1063.46C247.84 1064.99 255.149 1065.03 260.997 1063.59C266.844 1062.11 271.252 1059.34 274.221 1055.29C277.145 1051.24 278.607 1046.09 278.607 1039.84C278.607 1032.87 276.92 1026.59 273.546 1021.02C270.173 1015.44 265.247 1010.78 258.77 1007.05C252.293 1003.27 244.421 1000.6 235.155 999.021ZM306 957.256L167.818 934.316L167.818 839.991L194.942 844.579L194.942 905.506L223.28 910.094L223.28 855.172L250.471 859.76L250.471 914.682L306 923.858L306 957.256ZM194.942 791.462L167.818 786.874L167.818 670.08L194.942 674.668L194.942 716.568L306 734.921L306 767.847L194.942 749.494L194.942 791.462ZM306 676.71L167.818 653.769L167.818 620.371L223.28 629.547L223.28 575.097L167.818 565.921L167.818 532.59L306 555.531L306 588.861L250.471 579.685L250.471 634.135L306 643.311L306 676.71ZM306 534.581L167.818 511.64L167.818 415.291L194.942 419.879L194.942 482.83L223.28 487.418L223.28 429.392L250.471 433.98L250.471 492.006L278.877 496.594L278.877 433.643L306 438.231L306 534.581ZM306 324.676L306 376.495L167.818 353.554L167.818 303.288C167.818 289.254 170.675 277.559 176.387 268.203C182.055 258.802 190.196 252.167 200.812 248.299C211.382 244.385 223.977 243.643 238.596 246.072C252.72 248.411 264.82 253.112 274.896 260.174C284.971 267.191 292.686 276.187 298.038 287.162C303.346 298.138 306 310.642 306 324.676ZM277.527 338.441L277.527 322.585C277.527 314.848 276.133 308.011 273.344 302.074C270.51 296.091 265.989 291.143 259.782 287.23C253.53 283.316 245.321 280.528 235.155 278.863C225.439 277.244 217.77 277.311 212.147 279.066C206.479 280.775 202.431 284.104 200.002 289.051C197.528 293.954 196.291 300.364 196.291 308.281L196.291 324.879L277.527 338.441ZM306 215.98L306 251.875L167.818 182.311L167.818 137.848L306 114.165L306 150.06L202.634 165.241L202.634 166.321L306 215.98ZM251.618 211.662L251.618 136.633L276.987 140.951L276.987 215.98L251.618 211.662ZM167.818 97.331L167.818 60.0192L225.641 40.4524L225.641 39.0355L167.818 0.374283L167.818 -36.9375L259.85 28.8473L306 36.5391L306 69.7351L259.85 61.9758L167.818 97.331Z" fill="white"/>
</g>
<defs>
<clipPath id="clip0_115_30">
<rect width="306" height="1024" fill="white"/>
</clipPath>
</defs>
</svg>
